HIERARCHY
ROOT joint_Root
{
	OFFSET 0.0 0.0 0.0
	CHANNELS 6 Xposition Yposition Zposition Zrotation Xrotation Yrotation 
	JOINT Hips
	{
		OFFSET 4.5925 91.4895 -427.239
		CHANNELS 6 Xposition Yposition Zposition Zrotation Xrotation Yrotation 
		JOINT Spine
		{
			OFFSET 15.7357 0.0 0.0
			CHANNELS 6 Xposition Yposition Zposition Zrotation Xrotation Yrotation 
			JOINT Chest
			{
				OFFSET 8.98455 -0.406207 0.0
				CHANNELS 6 Xposition Yposition Zposition Zrotation Xrotation Yrotation 
				JOINT Neck
				{
					OFFSET 16.3773 0.0 0.0
					CHANNELS 6 Xposition Yposition Zposition Zrotation Xrotation Yrotation 
					JOINT Head
					{
						OFFSET 6.45672 0.0 0.0
						CHANNELS 6 Xposition Yposition Zposition Zrotation Xrotation Yrotation 
						End Site
						{
							OFFSET 0.0 0.0 0.0
						}
					}
				}
				JOINT Shoulder_L
				{
					OFFSET 12.9942 -0.242716 4.98039
					CHANNELS 6 Xposition Yposition Zposition Zrotation Xrotation Yrotation 
					JOINT UpperArm_L
					{
						OFFSET 5.34809 0.0 0.0
						CHANNELS 6 Xposition Yposition Zposition Zrotation Xrotation Yrotation 
						JOINT LowerArm_L
						{
							OFFSET 24.3286 1.87007e-05 0.0
							CHANNELS 6 Xposition Yposition Zposition Zrotation Xrotation Yrotation 
							JOINT Hand_L
							{
								OFFSET 22.2916 0.0 0.0
								CHANNELS 6 Xposition Yposition Zposition Zrotation Xrotation Yrotation 
								End Site
								{
									OFFSET 0.0 0.0 0.0
								}
							}
						}
					}
				}
				JOINT Shoulder_R
				{
					OFFSET 12.9945 -0.242716 -4.98039
					CHANNELS 6 Xposition Yposition Zposition Zrotation Xrotation Yrotation 
					JOINT UpperArm_R
					{
						OFFSET -5.34813 0.0 0.0
						CHANNELS 6 Xposition Yposition Zposition Zrotation Xrotation Yrotation 
						JOINT LowerArm_R
						{
							OFFSET -24.3289 0.000322201 0.0
							CHANNELS 6 Xposition Yposition Zposition Zrotation Xrotation Yrotation 
							JOINT Hand_R
							{
								OFFSET -22.2915 -0.000108084 0.0
								CHANNELS 6 Xposition Yposition Zposition Zrotation Xrotation Yrotation 
								End Site
								{
									OFFSET 0.0 0.0 0.0
								}
							}
						}
					}
				}
			}
		}
		JOINT UpperLeg_L
		{
			OFFSET -2.19248 -6.46944 0.0
			CHANNELS 6 Xposition Yposition Zposition Zrotation Xrotation Yrotation 
			JOINT LowerLeg_L
			{
				OFFSET 39.0811 0.0 -1.23785e-05
				CHANNELS 6 Xposition Yposition Zposition Zrotation Xrotation Yrotation 
				JOINT Foot_L
				{
					OFFSET 40.9854 0.0 -1.26872e-05
					CHANNELS 6 Xposition Yposition Zposition Zrotation Xrotation Yrotation 
					JOINT Toes_L
					{
						OFFSET 11.7543 0.0 0.0
						CHANNELS 6 Xposition Yposition Zposition Zrotation Xrotation Yrotation 
						End Site
						{
							OFFSET 0.0 0.0 0.0
						}
					}
				}
			}
		}
		JOINT UpperLeg_R
		{
			OFFSET -2.19251 6.46944 0.0
			CHANNELS 6 Xposition Yposition Zposition Zrotation Xrotation Yrotation 
			JOINT LowerLeg_R
			{
				OFFSET -39.0811 -0.00228153 -0.0401928
				CHANNELS 6 Xposition Yposition Zposition Zrotation Xrotation Yrotation 
				JOINT Foot_R
				{
					OFFSET -40.9854 0.0 0.0
					CHANNELS 6 Xposition Yposition Zposition Zrotation Xrotation Yrotation 
					JOINT Toes_R
					{
						OFFSET -11.7543 0.0 0.0
						CHANNELS 6 Xposition Yposition Zposition Zrotation Xrotation Yrotation 
						End Site
						{
							OFFSET 0.0 0.0 0.0
						}
					}
				}
			}
		}
	}
}
MOTION
Frames:	7
Frame Time:	0.0333333
0.000000 0.000000 0.000000 0.000000 0.000000 -0.000000 -1.642740 90.077100 2.314010 88.228200 -6.257510 12.929700 15.735700 0.000005 -0.000001 87.603900 80.400800 -86.605300 8.984550 -0.406207 -0.000000 11.423800 -0.764425 2.072760 16.377300 -0.000001 -0.000001 13.553800 -4.446680 0.077415 6.456720 -0.000001 -0.000000 6.316420 -4.459000 -4.932170 12.994200 -0.242716 4.980390 -91.587400 6.111670 -75.410000 5.348090 -0.000007 -0.000001 -60.753000 38.240800 -20.700800 24.328600 0.000019 0.000005 7.905560 20.677000 -21.467700 22.291600 -0.000001 0.000005 7.485440 5.251090 1.403920 12.994500 -0.242716 -4.980390 88.582000 10.376300 -82.174300 -5.348130 -0.000001 -0.000004 -60.503400 33.991300 -14.534900 -24.328900 0.000322 -0.000009 0.335199 0.950924 -19.475200 -22.291500 -0.000108 -0.000004 13.249400 5.380940 -2.328230 -2.192480 -6.469440 -0.000000 -171.696000 -12.304500 4.091720 39.081100 -0.000007 -0.000012 -0.261958 0.398121 33.344800 40.985400 -0.000006 -0.000013 -1.793870 1.844710 -73.652900 11.754300 -0.000000 0.000003 -0.000186 -0.001745 -16.643500 -2.192510 6.469440 -0.000001 174.329000 19.833000 -174.416000 -39.081100 -0.002282 -0.040193 -0.246870 0.406124 31.633100 -40.985400 0.000008 0.000006 4.053410 13.237400 -73.605900 -11.754300 -0.000006 -0.000006 -0.001429 -0.021328 -17.440400
0.000000 0.000000 0.000000 0.000000 0.000000 -0.000000 -1.751560 90.086500 2.212670 88.198300 -6.219720 13.030200 15.735700 0.000005 -0.000001 87.532400 80.433700 -86.473000 8.984550 -0.406207 -0.000000 11.357800 -0.784080 2.195890 16.377300 -0.000001 -0.000001 14.282300 -4.628930 0.311328 6.456720 -0.000001 -0.000000 6.901570 -4.690970 -4.745500 12.994200 -0.242716 4.980390 -91.552000 5.950360 -75.353400 5.348090 -0.000007 -0.000001 -61.603600 36.482800 -20.184800 24.328600 0.000019 0.000005 8.347680 21.254300 -22.036500 22.291600 -0.000001 0.000005 7.136820 5.252020 1.379490 12.994500 -0.242716 -4.980390 88.595100 10.266400 -82.164900 -5.348130 -0.000001 -0.000004 -60.976900 34.041700 -14.215900 -24.328900 0.000322 -0.000009 0.344892 0.976915 -19.501400 -22.291500 -0.000108 -0.000004 13.158900 5.379110 -2.270460 -2.192480 -6.469440 -0.000000 -171.540000 -12.307100 4.124040 39.081100 -0.000007 -0.000012 -0.267906 0.407108 33.348200 40.985400 -0.000006 -0.000013 -1.835530 1.980140 -73.563700 11.754300 -0.000000 0.000003 -0.000187 -0.001750 -16.643700 -2.192510 6.469440 -0.000001 174.351000 20.058300 -174.333000 -39.081100 -0.002282 -0.040193 -0.244179 0.402046 31.614500 -40.985400 0.000008 0.000006 4.193050 13.372500 -73.578100 -11.754300 -0.000006 -0.000006 -0.001425 -0.021276 -17.438300
0.000000 0.000000 0.000000 0.000000 0.000000 -0.000000 -1.860430 90.097600 2.066880 88.180400 -6.091740 13.099500 15.735700 0.000005 -0.000001 87.393700 80.464500 -86.274900 8.984550 -0.406207 -0.000000 11.295200 -0.826037 2.318380 16.377300 -0.000001 -0.000001 15.070500 -4.815640 0.544443 6.456720 -0.000001 -0.000000 7.510000 -4.897950 -4.627030 12.994200 -0.242716 4.980390 -91.506700 5.781710 -75.366700 5.348090 -0.000007 -0.000001 -62.450400 33.774500 -19.642700 24.328600 0.000019 0.000005 8.967490 21.681700 -23.128500 22.291600 -0.000001 0.000005 6.332180 5.244800 1.570070 12.994500 -0.242716 -4.980390 88.602700 10.173800 -82.137300 -5.348130 -0.000001 -0.000004 -61.402600 34.110800 -13.959500 -24.328900 0.000322 -0.000009 0.343939 0.977929 -19.433200 -22.291500 -0.000108 -0.000004 12.978200 5.380410 -2.311460 -2.192480 -6.469440 -0.000000 -171.469000 -12.179900 4.047200 39.081100 -0.000007 -0.000012 -0.267201 0.405583 33.377700 40.985400 -0.000006 -0.000013 -1.896590 2.011220 -73.446900 11.754300 -0.000000 0.000003 -0.000192 -0.001790 -16.645200 -2.192510 6.469440 -0.000001 174.372000 20.331200 -174.310000 -39.081100 -0.002282 -0.040193 -0.245564 0.404331 31.612300 -40.985400 0.000008 0.000006 4.323170 13.461400 -73.535700 -11.754300 -0.000006 -0.000006 -0.001508 -0.022378 -17.483100
0.000000 0.000000 0.000000 0.000000 0.000000 -0.000000 -1.980190 90.106100 1.904700 88.198600 -5.934230 13.254500 15.735700 0.000005 -0.000001 87.215700 80.428100 -86.056700 8.984550 -0.406207 -0.000000 11.366400 -0.886226 2.405280 16.377300 -0.000001 -0.000001 15.709800 -4.947620 0.678803 6.456720 -0.000001 -0.000000 8.105960 -5.016620 -4.484320 12.994200 -0.242716 4.980390 -91.476600 5.656780 -75.344300 5.348090 -0.000007 -0.000001 -62.443100 30.722900 -19.787500 24.328600 0.000019 0.000005 9.667280 21.922000 -24.525400 22.291600 -0.000001 0.000005 4.735590 5.242280 1.637190 12.994500 -0.242716 -4.980390 88.614900 10.089600 -82.141600 -5.348130 -0.000001 -0.000004 -61.839400 34.113600 -13.771600 -24.328900 0.000322 -0.000009 0.355566 1.016740 -19.329700 -22.291500 -0.000108 -0.000004 13.016100 5.385360 -2.467550 -2.192480 -6.469440 -0.000000 -171.412000 -12.044000 4.043070 39.081100 -0.000007 -0.000012 -0.265330 0.402374 33.401700 40.985400 -0.000006 -0.000013 -1.941250 2.097860 -73.315200 11.754300 -0.000000 0.000003 -0.000195 -0.001815 -16.646100 -2.192510 6.469440 -0.000001 174.363000 20.569400 -174.240000 -39.081100 -0.002282 -0.040193 -0.240534 0.395580 31.649700 -40.985400 0.000008 0.000006 4.457300 13.494900 -73.502400 -11.754300 -0.000006 -0.000006 -0.001459 -0.021731 -17.456800
0.000000 0.000000 0.000000 0.000000 0.000000 -0.000000 -2.119840 90.110700 1.703470 88.195600 -5.649000 13.320600 15.735700 0.000005 -0.000001 86.933600 80.408500 -85.717600 8.984550 -0.406207 -0.000000 11.402300 -0.979467 2.528850 16.377300 -0.000001 -0.000001 16.344400 -5.047560 0.801677 6.456720 -0.000001 -0.000000 8.630000 -5.177920 -4.508460 12.994200 -0.242716 4.980390 -91.459000 5.568520 -75.293100 5.348090 -0.000007 -0.000001 -61.310800 27.766400 -20.833800 24.328600 0.000019 0.000005 10.517700 22.209000 -26.158800 22.291600 -0.000001 0.000005 2.895730 5.235490 1.814150 12.994500 -0.242716 -4.980390 88.636800 9.944120 -82.153600 -5.348130 -0.000001 -0.000004 -62.324400 34.017500 -13.562600 -24.328900 0.000322 -0.000009 0.373453 1.069540 -19.299400 -22.291500 -0.000108 -0.000004 12.931000 5.384360 -2.435840 -2.192480 -6.469440 -0.000000 -171.343000 -11.836100 3.858770 39.081100 -0.000007 -0.000012 -0.272257 0.411567 33.485700 40.985400 -0.000006 -0.000013 -1.988440 2.245030 -73.161200 11.754300 -0.000000 0.000003 -0.000188 -0.001761 -16.644100 -2.192510 6.469440 -0.000001 174.404000 20.930700 -174.285000 -39.081100 -0.002282 -0.040193 -0.240337 0.394300 31.712000 -40.985400 0.000008 0.000006 4.597820 13.471700 -73.464200 -11.754300 -0.000006 -0.000006 -0.001514 -0.022453 -17.486100
0.000000 0.000000 0.000000 0.000000 0.000000 -0.000000 -2.279070 90.122300 1.503030 88.205000 -5.265540 13.396400 15.735700 0.000005 -0.000001 86.650100 80.416000 -85.375300 8.984550 -0.406207 -0.000000 11.383900 -1.070970 2.655550 16.377300 -0.000001 -0.000001 17.007000 -5.194890 0.889414 6.456720 -0.000001 -0.000000 9.239150 -5.426770 -4.603240 12.994200 -0.242716 4.980390 -91.419800 5.408070 -75.266600 5.348090 -0.000007 -0.000001 -59.359500 24.758500 -22.605900 24.328600 0.000019 0.000005 11.516700 22.766800 -27.767400 22.291600 -0.000001 0.000005 1.717500 5.226260 2.052280 12.994500 -0.242716 -4.980390 88.660000 9.743780 -82.131000 -5.348130 -0.000001 -0.000004 -62.834400 34.021800 -13.227500 -24.328900 0.000322 -0.000009 0.338473 0.966059 -19.365500 -22.291500 -0.000108 -0.000004 12.876000 5.382790 -2.386110 -2.192480 -6.469440 -0.000000 -171.289000 -11.601900 3.696780 39.081100 -0.000007 -0.000012 -0.269744 0.407192 33.523000 40.985400 -0.000006 -0.000013 -2.027810 2.442360 -72.980700 11.754300 -0.000000 0.000003 -0.000179 -0.001690 -16.641500 -2.192510 6.469440 -0.000001 174.452000 21.297200 -174.291000 -39.081100 -0.002282 -0.040193 -0.233271 0.382589 31.730300 -40.985400 0.000008 0.000006 4.723500 13.373200 -73.414600 -11.754300 -0.000006 -0.000006 -0.001434 -0.021396 -17.443200
0.000000 0.000000 0.000000 0.000000 0.000000 -0.000000 -2.471690 90.131700 1.254750 88.188900 -4.723650 13.421900 15.735700 0.000005 -0.000001 86.284400 80.449700 -84.944900 8.984550 -0.406207 -0.000000 11.311600 -1.186710 2.795520 16.377300 -0.000001 -0.000001 17.673300 -5.412170 0.971597 6.456720 -0.000001 -0.000000 9.843100 -5.715200 -4.639040 12.994200 -0.242716 4.980390 -91.333700 5.103960 -75.335100 5.348090 -0.000007 -0.000001 -57.241900 21.043600 -24.837700 24.328600 0.000019 0.000005 12.365500 23.163900 -29.132200 22.291600 -0.000001 0.000005 1.556720 5.215520 2.326580 12.994500 -0.242716 -4.980390 88.679200 9.565330 -82.100500 -5.348130 -0.000001 -0.000004 -63.249900 34.012900 -12.856700 -24.328900 0.000322 -0.000009 0.356509 1.016340 -19.383900 -22.291500 -0.000108 -0.000004 12.904100 5.382700 -2.383030 -2.192480 -6.469440 -0.000000 -171.243000 -11.215000 3.379420 39.081100 -0.000007 -0.000012 -0.271596 0.408583 33.613500 40.985400 -0.000006 -0.000013 -2.090820 2.626510 -72.768300 11.754300 -0.000000 0.000003 -0.000177 -0.001671 -16.640800 -2.192510 6.469440 -0.000001 174.528000 21.815900 -174.361000 -39.081100 -0.002282 -0.040193 -0.232948 0.381673 31.756800 -40.985400 0.000008 0.000006 4.881230 13.286100 -73.358900 -11.754300 -0.000006 -0.000006 -0.001461 -0.021748 -17.457400
